<mxfile host="app.diagrams.net" modified="2022-03-26T16:22:32.120Z" agent="5.0 (Windows NT 10.0; Win64; x64) AppleWebKit/537.36 (KHTML, like Gecko) Chrome/99.0.4844.74 Safari/537.36 Edg/99.0.1150.52" etag="3_fM8txmD0O4iJyrpgRu" version="17.2.4" type="github">
  <diagram id="xyQOoseDXhLeoSNfEVaJ" name="Page-1">
    <mxGraphModel dx="1422" dy="754" grid="1" gridSize="10" guides="1" tooltips="1" connect="1" arrows="1" fold="1" page="1" pageScale="1" pageWidth="1600" pageHeight="900" math="0" shadow="0">
      <root>
        <mxCell id="0" />
        <mxCell id="1" parent="0" />
        <mxCell id="X-figGxdxcl5Zrcqjurx-1" style="edgeStyle=orthogonalEdgeStyle;rounded=0;orthogonalLoop=1;jettySize=auto;html=1;exitX=1;exitY=0.5;exitDx=0;exitDy=0;endArrow=none;endFill=0;fillColor=#000000;entryX=0;entryY=0.5;entryDx=0;entryDy=0;" edge="1" parent="1" source="X-figGxdxcl5Zrcqjurx-4" target="X-figGxdxcl5Zrcqjurx-9">
          <mxGeometry relative="1" as="geometry">
            <mxPoint x="885" y="235.39999999999998" as="targetPoint" />
          </mxGeometry>
        </mxCell>
        <mxCell id="X-figGxdxcl5Zrcqjurx-2" style="edgeStyle=orthogonalEdgeStyle;rounded=0;orthogonalLoop=1;jettySize=auto;html=1;exitX=0.5;exitY=1;exitDx=0;exitDy=0;entryX=0.5;entryY=0;entryDx=0;entryDy=0;endArrow=none;endFill=0;fillColor=#000000;" edge="1" parent="1" source="X-figGxdxcl5Zrcqjurx-4" target="X-figGxdxcl5Zrcqjurx-10">
          <mxGeometry relative="1" as="geometry" />
        </mxCell>
        <mxCell id="X-figGxdxcl5Zrcqjurx-3" style="edgeStyle=orthogonalEdgeStyle;rounded=0;orthogonalLoop=1;jettySize=auto;html=1;exitX=0.75;exitY=1;exitDx=0;exitDy=0;entryX=0.5;entryY=0;entryDx=0;entryDy=0;endArrow=none;endFill=0;fillColor=#000000;" edge="1" parent="1" source="X-figGxdxcl5Zrcqjurx-4" target="X-figGxdxcl5Zrcqjurx-48">
          <mxGeometry relative="1" as="geometry" />
        </mxCell>
        <mxCell id="X-figGxdxcl5Zrcqjurx-4" value="Corso" style="whiteSpace=wrap;html=1;align=center;" vertex="1" parent="1">
          <mxGeometry x="695" y="215" width="100" height="40" as="geometry" />
        </mxCell>
        <mxCell id="X-figGxdxcl5Zrcqjurx-5" style="edgeStyle=orthogonalEdgeStyle;rounded=0;orthogonalLoop=1;jettySize=auto;html=1;exitX=0.25;exitY=0;exitDx=0;exitDy=0;entryX=0.5;entryY=1;entryDx=0;entryDy=0;endArrow=none;endFill=0;fillColor=#000000;" edge="1" parent="1" source="X-figGxdxcl5Zrcqjurx-7" target="X-figGxdxcl5Zrcqjurx-55">
          <mxGeometry relative="1" as="geometry" />
        </mxCell>
        <mxCell id="X-figGxdxcl5Zrcqjurx-6" style="edgeStyle=orthogonalEdgeStyle;rounded=0;orthogonalLoop=1;jettySize=auto;html=1;exitX=1;exitY=0;exitDx=0;exitDy=0;entryX=0.5;entryY=1;entryDx=0;entryDy=0;endArrow=none;endFill=0;fillColor=#000000;" edge="1" parent="1" source="X-figGxdxcl5Zrcqjurx-7" target="X-figGxdxcl5Zrcqjurx-58">
          <mxGeometry relative="1" as="geometry" />
        </mxCell>
        <mxCell id="X-figGxdxcl5Zrcqjurx-7" value="Insegnante" style="whiteSpace=wrap;html=1;align=center;" vertex="1" parent="1">
          <mxGeometry x="905" y="115" width="100" height="40" as="geometry" />
        </mxCell>
        <mxCell id="X-figGxdxcl5Zrcqjurx-8" value="" style="edgeStyle=orthogonalEdgeStyle;rounded=0;orthogonalLoop=1;jettySize=auto;html=1;endArrow=none;endFill=0;fillColor=#000000;" edge="1" parent="1" source="X-figGxdxcl5Zrcqjurx-9" target="X-figGxdxcl5Zrcqjurx-7">
          <mxGeometry relative="1" as="geometry" />
        </mxCell>
        <mxCell id="X-figGxdxcl5Zrcqjurx-9" value="Insegna" style="shape=rhombus;perimeter=rhombusPerimeter;whiteSpace=wrap;html=1;align=center;" vertex="1" parent="1">
          <mxGeometry x="895" y="205" width="120" height="60" as="geometry" />
        </mxCell>
        <mxCell id="X-figGxdxcl5Zrcqjurx-105" style="edgeStyle=orthogonalEdgeStyle;rounded=0;orthogonalLoop=1;jettySize=auto;html=1;exitX=0;exitY=0.5;exitDx=0;exitDy=0;entryX=1;entryY=0.5;entryDx=0;entryDy=0;endArrow=none;endFill=0;" edge="1" parent="1" source="X-figGxdxcl5Zrcqjurx-10" target="X-figGxdxcl5Zrcqjurx-72">
          <mxGeometry relative="1" as="geometry" />
        </mxCell>
        <mxCell id="X-figGxdxcl5Zrcqjurx-10" value="Location" style="shape=rhombus;perimeter=rhombusPerimeter;whiteSpace=wrap;html=1;align=center;" vertex="1" parent="1">
          <mxGeometry x="685" y="385" width="120" height="60" as="geometry" />
        </mxCell>
        <mxCell id="X-figGxdxcl5Zrcqjurx-11" style="edgeStyle=orthogonalEdgeStyle;rounded=0;orthogonalLoop=1;jettySize=auto;html=1;exitX=1;exitY=0.5;exitDx=0;exitDy=0;entryX=0;entryY=0.5;entryDx=0;entryDy=0;endArrow=none;endFill=0;fillColor=#000000;" edge="1" parent="1" source="X-figGxdxcl5Zrcqjurx-13" target="X-figGxdxcl5Zrcqjurx-15">
          <mxGeometry relative="1" as="geometry" />
        </mxCell>
        <mxCell id="X-figGxdxcl5Zrcqjurx-12" style="edgeStyle=orthogonalEdgeStyle;rounded=0;orthogonalLoop=1;jettySize=auto;html=1;exitX=0.5;exitY=0;exitDx=0;exitDy=0;entryX=0.5;entryY=1;entryDx=0;entryDy=0;endArrow=none;endFill=0;fillColor=#000000;" edge="1" parent="1" source="X-figGxdxcl5Zrcqjurx-13" target="X-figGxdxcl5Zrcqjurx-24">
          <mxGeometry relative="1" as="geometry" />
        </mxCell>
        <mxCell id="X-figGxdxcl5Zrcqjurx-13" value="Impiego" style="whiteSpace=wrap;html=1;align=center;" vertex="1" parent="1">
          <mxGeometry x="805" y="525" width="100" height="40" as="geometry" />
        </mxCell>
        <mxCell id="X-figGxdxcl5Zrcqjurx-14" style="edgeStyle=orthogonalEdgeStyle;rounded=0;orthogonalLoop=1;jettySize=auto;html=1;exitX=0.5;exitY=0;exitDx=0;exitDy=0;entryX=1;entryY=0.5;entryDx=0;entryDy=0;endArrow=none;endFill=0;fillColor=#000000;" edge="1" parent="1" source="X-figGxdxcl5Zrcqjurx-15" target="X-figGxdxcl5Zrcqjurx-7">
          <mxGeometry relative="1" as="geometry" />
        </mxCell>
        <mxCell id="X-figGxdxcl5Zrcqjurx-15" value="Impiegato" style="shape=rhombus;perimeter=rhombusPerimeter;whiteSpace=wrap;html=1;align=center;" vertex="1" parent="1">
          <mxGeometry x="1035" y="515" width="120" height="60" as="geometry" />
        </mxCell>
        <mxCell id="X-figGxdxcl5Zrcqjurx-16" style="edgeStyle=orthogonalEdgeStyle;rounded=0;orthogonalLoop=1;jettySize=auto;html=1;exitX=1;exitY=0.5;exitDx=0;exitDy=0;entryX=0;entryY=0.5;entryDx=0;entryDy=0;endArrow=none;endFill=0;fillColor=#000000;" edge="1" parent="1" target="X-figGxdxcl5Zrcqjurx-13">
          <mxGeometry relative="1" as="geometry">
            <mxPoint x="715" y="545" as="sourcePoint" />
          </mxGeometry>
        </mxCell>
        <mxCell id="X-figGxdxcl5Zrcqjurx-17" value="Impiego presente" style="whiteSpace=wrap;html=1;align=center;" vertex="1" parent="1">
          <mxGeometry x="715" y="645" width="100" height="40" as="geometry" />
        </mxCell>
        <mxCell id="X-figGxdxcl5Zrcqjurx-18" style="edgeStyle=orthogonalEdgeStyle;rounded=0;orthogonalLoop=1;jettySize=auto;html=1;exitX=0.5;exitY=1;exitDx=0;exitDy=0;endArrow=none;endFill=0;fillColor=#000000;" edge="1" parent="1" source="X-figGxdxcl5Zrcqjurx-19">
          <mxGeometry relative="1" as="geometry">
            <mxPoint x="944.8571428571431" y="700" as="targetPoint" />
          </mxGeometry>
        </mxCell>
        <mxCell id="X-figGxdxcl5Zrcqjurx-19" value="Impiego passato" style="whiteSpace=wrap;html=1;align=center;" vertex="1" parent="1">
          <mxGeometry x="895" y="645" width="100" height="40" as="geometry" />
        </mxCell>
        <mxCell id="X-figGxdxcl5Zrcqjurx-20" style="edgeStyle=orthogonalEdgeStyle;rounded=0;orthogonalLoop=1;jettySize=auto;html=1;exitX=0.5;exitY=0;exitDx=0;exitDy=0;endArrow=none;endFill=0;fillColor=#000000;" edge="1" parent="1">
          <mxGeometry relative="1" as="geometry">
            <mxPoint x="764.8000000000002" y="605" as="targetPoint" />
            <mxPoint x="764.8000000000002" y="645" as="sourcePoint" />
            <Array as="points">
              <mxPoint x="764.8" y="625" />
              <mxPoint x="764.8" y="625" />
            </Array>
          </mxGeometry>
        </mxCell>
        <mxCell id="X-figGxdxcl5Zrcqjurx-21" value="" style="endArrow=none;html=1;rounded=0;fillColor=#000000;" edge="1" parent="1">
          <mxGeometry width="50" height="50" relative="1" as="geometry">
            <mxPoint x="764.8000000000002" y="605" as="sourcePoint" />
            <mxPoint x="944.8000000000002" y="605" as="targetPoint" />
          </mxGeometry>
        </mxCell>
        <mxCell id="X-figGxdxcl5Zrcqjurx-22" value="" style="shape=flexArrow;endArrow=classic;html=1;rounded=0;entryX=0.5;entryY=1;entryDx=0;entryDy=0;fillColor=#000000;" edge="1" parent="1">
          <mxGeometry width="50" height="50" relative="1" as="geometry">
            <mxPoint x="854.21" y="605" as="sourcePoint" />
            <mxPoint x="854.21" y="565" as="targetPoint" />
          </mxGeometry>
        </mxCell>
        <mxCell id="X-figGxdxcl5Zrcqjurx-23" style="edgeStyle=orthogonalEdgeStyle;rounded=0;orthogonalLoop=1;jettySize=auto;html=1;exitX=0.5;exitY=0;exitDx=0;exitDy=0;endArrow=none;endFill=0;fillColor=#000000;" edge="1" parent="1">
          <mxGeometry relative="1" as="geometry">
            <mxPoint x="944.8000000000002" y="605" as="targetPoint" />
            <mxPoint x="944.8000000000002" y="645" as="sourcePoint" />
            <Array as="points">
              <mxPoint x="944.8" y="605" />
            </Array>
          </mxGeometry>
        </mxCell>
        <mxCell id="X-figGxdxcl5Zrcqjurx-24" value="" style="ellipse;whiteSpace=wrap;html=1;aspect=fixed;" vertex="1" parent="1">
          <mxGeometry x="850" y="490" width="10" height="10" as="geometry" />
        </mxCell>
        <mxCell id="X-figGxdxcl5Zrcqjurx-25" value="" style="endArrow=none;html=1;rounded=0;fillColor=#000000;" edge="1" parent="1">
          <mxGeometry width="50" height="50" relative="1" as="geometry">
            <mxPoint x="795" y="560" as="sourcePoint" />
            <mxPoint x="795" y="510" as="targetPoint" />
          </mxGeometry>
        </mxCell>
        <mxCell id="X-figGxdxcl5Zrcqjurx-26" value="" style="endArrow=none;html=1;rounded=0;fillColor=#000000;" edge="1" parent="1">
          <mxGeometry width="50" height="50" relative="1" as="geometry">
            <mxPoint x="915" y="560" as="sourcePoint" />
            <mxPoint x="915" y="510" as="targetPoint" />
          </mxGeometry>
        </mxCell>
        <mxCell id="X-figGxdxcl5Zrcqjurx-27" value="" style="endArrow=none;html=1;rounded=0;fillColor=#000000;" edge="1" parent="1">
          <mxGeometry width="50" height="50" relative="1" as="geometry">
            <mxPoint x="915" y="510" as="sourcePoint" />
            <mxPoint x="795" y="510" as="targetPoint" />
          </mxGeometry>
        </mxCell>
        <mxCell id="X-figGxdxcl5Zrcqjurx-28" value="" style="ellipse;whiteSpace=wrap;html=1;aspect=fixed;fillColor=#000000;" vertex="1" parent="1">
          <mxGeometry x="790" y="555" width="10" height="10" as="geometry" />
        </mxCell>
        <mxCell id="X-figGxdxcl5Zrcqjurx-29" value="Data_inizio" style="text;html=1;align=center;verticalAlign=middle;resizable=0;points=[];autosize=1;strokeColor=none;fillColor=none;" vertex="1" parent="1">
          <mxGeometry x="820" y="470" width="70" height="20" as="geometry" />
        </mxCell>
        <mxCell id="X-figGxdxcl5Zrcqjurx-30" style="edgeStyle=orthogonalEdgeStyle;rounded=0;orthogonalLoop=1;jettySize=auto;html=1;exitX=0.5;exitY=1;exitDx=0;exitDy=0;entryX=0;entryY=0.25;entryDx=0;entryDy=0;endArrow=none;endFill=0;fillColor=#000000;" edge="1" parent="1" source="X-figGxdxcl5Zrcqjurx-31" target="X-figGxdxcl5Zrcqjurx-4">
          <mxGeometry relative="1" as="geometry" />
        </mxCell>
        <mxCell id="X-figGxdxcl5Zrcqjurx-31" value="" style="ellipse;whiteSpace=wrap;html=1;aspect=fixed;" vertex="1" parent="1">
          <mxGeometry x="645" y="170" width="10" height="10" as="geometry" />
        </mxCell>
        <mxCell id="X-figGxdxcl5Zrcqjurx-32" style="edgeStyle=orthogonalEdgeStyle;rounded=0;orthogonalLoop=1;jettySize=auto;html=1;exitX=0.5;exitY=1;exitDx=0;exitDy=0;entryX=0;entryY=0;entryDx=0;entryDy=0;endArrow=none;endFill=0;fillColor=#000000;" edge="1" parent="1" source="X-figGxdxcl5Zrcqjurx-33" target="X-figGxdxcl5Zrcqjurx-4">
          <mxGeometry relative="1" as="geometry">
            <Array as="points">
              <mxPoint x="685" y="215" />
            </Array>
          </mxGeometry>
        </mxCell>
        <mxCell id="X-figGxdxcl5Zrcqjurx-33" value="" style="ellipse;whiteSpace=wrap;html=1;aspect=fixed;" vertex="1" parent="1">
          <mxGeometry x="680" y="170" width="10" height="10" as="geometry" />
        </mxCell>
        <mxCell id="X-figGxdxcl5Zrcqjurx-34" style="edgeStyle=orthogonalEdgeStyle;rounded=0;orthogonalLoop=1;jettySize=auto;html=1;exitX=0.5;exitY=1;exitDx=0;exitDy=0;entryX=0.25;entryY=0;entryDx=0;entryDy=0;endArrow=none;endFill=0;fillColor=#000000;" edge="1" parent="1" source="X-figGxdxcl5Zrcqjurx-35" target="X-figGxdxcl5Zrcqjurx-4">
          <mxGeometry relative="1" as="geometry" />
        </mxCell>
        <mxCell id="X-figGxdxcl5Zrcqjurx-35" value="" style="ellipse;whiteSpace=wrap;html=1;aspect=fixed;" vertex="1" parent="1">
          <mxGeometry x="715" y="170" width="10" height="10" as="geometry" />
        </mxCell>
        <mxCell id="X-figGxdxcl5Zrcqjurx-36" style="edgeStyle=orthogonalEdgeStyle;rounded=0;orthogonalLoop=1;jettySize=auto;html=1;exitX=0.5;exitY=1;exitDx=0;exitDy=0;entryX=0.654;entryY=0.015;entryDx=0;entryDy=0;entryPerimeter=0;endArrow=none;endFill=0;fillColor=#000000;" edge="1" parent="1" source="X-figGxdxcl5Zrcqjurx-37" target="X-figGxdxcl5Zrcqjurx-4">
          <mxGeometry relative="1" as="geometry" />
        </mxCell>
        <mxCell id="X-figGxdxcl5Zrcqjurx-37" value="" style="ellipse;whiteSpace=wrap;html=1;aspect=fixed;" vertex="1" parent="1">
          <mxGeometry x="755" y="170" width="10" height="10" as="geometry" />
        </mxCell>
        <mxCell id="X-figGxdxcl5Zrcqjurx-38" value="Costo" style="text;html=1;align=center;verticalAlign=middle;resizable=0;points=[];autosize=1;strokeColor=none;fillColor=none;" vertex="1" parent="1">
          <mxGeometry x="620" y="150" width="50" height="20" as="geometry" />
        </mxCell>
        <mxCell id="X-figGxdxcl5Zrcqjurx-39" value="Min_p" style="text;html=1;align=center;verticalAlign=middle;resizable=0;points=[];autosize=1;strokeColor=none;fillColor=none;" vertex="1" parent="1">
          <mxGeometry x="660" y="150" width="50" height="20" as="geometry" />
        </mxCell>
        <mxCell id="X-figGxdxcl5Zrcqjurx-40" value="Max_p" style="text;html=1;align=center;verticalAlign=middle;resizable=0;points=[];autosize=1;strokeColor=none;fillColor=none;" vertex="1" parent="1">
          <mxGeometry x="700" y="150" width="50" height="20" as="geometry" />
        </mxCell>
        <mxCell id="X-figGxdxcl5Zrcqjurx-41" value="Ora" style="text;html=1;align=center;verticalAlign=middle;resizable=0;points=[];autosize=1;strokeColor=none;fillColor=none;" vertex="1" parent="1">
          <mxGeometry x="740" y="150" width="40" height="20" as="geometry" />
        </mxCell>
        <mxCell id="X-figGxdxcl5Zrcqjurx-42" style="edgeStyle=orthogonalEdgeStyle;rounded=0;orthogonalLoop=1;jettySize=auto;html=1;exitX=0.5;exitY=1;exitDx=0;exitDy=0;endArrow=none;endFill=0;fillColor=#000000;" edge="1" parent="1" source="X-figGxdxcl5Zrcqjurx-43">
          <mxGeometry relative="1" as="geometry">
            <mxPoint x="795" y="220" as="targetPoint" />
          </mxGeometry>
        </mxCell>
        <mxCell id="X-figGxdxcl5Zrcqjurx-43" value="" style="ellipse;whiteSpace=wrap;html=1;aspect=fixed;" vertex="1" parent="1">
          <mxGeometry x="790" y="170" width="10" height="10" as="geometry" />
        </mxCell>
        <mxCell id="X-figGxdxcl5Zrcqjurx-44" value="Giorno" style="text;html=1;align=center;verticalAlign=middle;resizable=0;points=[];autosize=1;strokeColor=none;fillColor=none;" vertex="1" parent="1">
          <mxGeometry x="770" y="150" width="50" height="20" as="geometry" />
        </mxCell>
        <mxCell id="X-figGxdxcl5Zrcqjurx-45" style="edgeStyle=orthogonalEdgeStyle;rounded=0;orthogonalLoop=1;jettySize=auto;html=1;exitX=0.5;exitY=1;exitDx=0;exitDy=0;entryX=1;entryY=0.25;entryDx=0;entryDy=0;endArrow=none;endFill=0;fillColor=#000000;" edge="1" parent="1" source="X-figGxdxcl5Zrcqjurx-46" target="X-figGxdxcl5Zrcqjurx-4">
          <mxGeometry relative="1" as="geometry" />
        </mxCell>
        <mxCell id="X-figGxdxcl5Zrcqjurx-46" value="" style="ellipse;whiteSpace=wrap;html=1;aspect=fixed;" vertex="1" parent="1">
          <mxGeometry x="830" y="170" width="10" height="10" as="geometry" />
        </mxCell>
        <mxCell id="X-figGxdxcl5Zrcqjurx-47" value="Attività" style="text;html=1;align=center;verticalAlign=middle;resizable=0;points=[];autosize=1;strokeColor=none;fillColor=none;" vertex="1" parent="1">
          <mxGeometry x="810" y="150" width="50" height="20" as="geometry" />
        </mxCell>
        <mxCell id="X-figGxdxcl5Zrcqjurx-48" value="" style="ellipse;whiteSpace=wrap;html=1;aspect=fixed;" vertex="1" parent="1">
          <mxGeometry x="765" y="280" width="10" height="10" as="geometry" />
        </mxCell>
        <mxCell id="X-figGxdxcl5Zrcqjurx-49" value="ID_Corso" style="text;html=1;align=center;verticalAlign=middle;resizable=0;points=[];autosize=1;strokeColor=none;fillColor=none;" vertex="1" parent="1">
          <mxGeometry x="745" y="290" width="70" height="20" as="geometry" />
        </mxCell>
        <mxCell id="X-figGxdxcl5Zrcqjurx-50" value="" style="endArrow=none;html=1;rounded=0;fillColor=#000000;" edge="1" parent="1">
          <mxGeometry width="50" height="50" relative="1" as="geometry">
            <mxPoint x="735" y="270" as="sourcePoint" />
            <mxPoint x="795" y="270" as="targetPoint" />
          </mxGeometry>
        </mxCell>
        <mxCell id="X-figGxdxcl5Zrcqjurx-51" value="" style="ellipse;whiteSpace=wrap;html=1;aspect=fixed;fillColor=#000000;" vertex="1" parent="1">
          <mxGeometry x="725" y="265" width="10" height="10" as="geometry" />
        </mxCell>
        <mxCell id="X-figGxdxcl5Zrcqjurx-52" style="edgeStyle=orthogonalEdgeStyle;rounded=0;orthogonalLoop=1;jettySize=auto;html=1;exitX=0.5;exitY=1;exitDx=0;exitDy=0;entryX=0;entryY=0.25;entryDx=0;entryDy=0;endArrow=none;endFill=0;fillColor=#000000;" edge="1" parent="1" source="X-figGxdxcl5Zrcqjurx-53" target="X-figGxdxcl5Zrcqjurx-7">
          <mxGeometry relative="1" as="geometry">
            <Array as="points">
              <mxPoint x="890" y="125" />
            </Array>
          </mxGeometry>
        </mxCell>
        <mxCell id="X-figGxdxcl5Zrcqjurx-53" value="" style="ellipse;whiteSpace=wrap;html=1;aspect=fixed;" vertex="1" parent="1">
          <mxGeometry x="885" y="70" width="10" height="10" as="geometry" />
        </mxCell>
        <mxCell id="X-figGxdxcl5Zrcqjurx-54" value="(1,n)" style="text;html=1;align=center;verticalAlign=middle;resizable=0;points=[];autosize=1;strokeColor=none;fillColor=none;" vertex="1" parent="1">
          <mxGeometry x="855" y="105" width="40" height="20" as="geometry" />
        </mxCell>
        <mxCell id="X-figGxdxcl5Zrcqjurx-55" value="" style="ellipse;whiteSpace=wrap;html=1;aspect=fixed;fillColor=#000000;" vertex="1" parent="1">
          <mxGeometry x="920" y="70" width="10" height="10" as="geometry" />
        </mxCell>
        <mxCell id="X-figGxdxcl5Zrcqjurx-56" style="edgeStyle=orthogonalEdgeStyle;rounded=0;orthogonalLoop=1;jettySize=auto;html=1;exitX=0.5;exitY=1;exitDx=0;exitDy=0;entryX=0.646;entryY=-0.005;entryDx=0;entryDy=0;entryPerimeter=0;endArrow=none;endFill=0;fillColor=#000000;" edge="1" parent="1" source="X-figGxdxcl5Zrcqjurx-57" target="X-figGxdxcl5Zrcqjurx-7">
          <mxGeometry relative="1" as="geometry" />
        </mxCell>
        <mxCell id="X-figGxdxcl5Zrcqjurx-57" value="" style="ellipse;whiteSpace=wrap;html=1;aspect=fixed;" vertex="1" parent="1">
          <mxGeometry x="965" y="70" width="10" height="10" as="geometry" />
        </mxCell>
        <mxCell id="X-figGxdxcl5Zrcqjurx-58" value="" style="ellipse;whiteSpace=wrap;html=1;aspect=fixed;" vertex="1" parent="1">
          <mxGeometry x="1015" y="70" width="10" height="10" as="geometry" />
        </mxCell>
        <mxCell id="X-figGxdxcl5Zrcqjurx-59" value="(0,1)" style="text;html=1;align=center;verticalAlign=middle;resizable=0;points=[];autosize=1;strokeColor=none;fillColor=none;" vertex="1" parent="1">
          <mxGeometry x="965" y="95" width="40" height="20" as="geometry" />
        </mxCell>
        <mxCell id="X-figGxdxcl5Zrcqjurx-60" value="" style="ellipse;whiteSpace=wrap;html=1;aspect=fixed;" vertex="1" parent="1">
          <mxGeometry x="940" y="700" width="10" height="10" as="geometry" />
        </mxCell>
        <mxCell id="X-figGxdxcl5Zrcqjurx-61" value="Data_fine" style="text;html=1;align=center;verticalAlign=middle;resizable=0;points=[];autosize=1;strokeColor=none;fillColor=none;" vertex="1" parent="1">
          <mxGeometry x="910" y="710" width="70" height="20" as="geometry" />
        </mxCell>
        <mxCell id="X-figGxdxcl5Zrcqjurx-62" value="(1,n)" style="text;html=1;align=center;verticalAlign=middle;resizable=0;points=[];autosize=1;strokeColor=none;fillColor=none;" vertex="1" parent="1">
          <mxGeometry x="855" y="215" width="40" height="20" as="geometry" />
        </mxCell>
        <mxCell id="X-figGxdxcl5Zrcqjurx-63" value="(0,n)" style="text;html=1;align=center;verticalAlign=middle;resizable=0;points=[];autosize=1;strokeColor=none;fillColor=none;" vertex="1" parent="1">
          <mxGeometry x="960" y="160" width="40" height="20" as="geometry" />
        </mxCell>
        <mxCell id="X-figGxdxcl5Zrcqjurx-64" value="(0,n)" style="text;html=1;align=center;verticalAlign=middle;resizable=0;points=[];autosize=1;strokeColor=none;fillColor=none;" vertex="1" parent="1">
          <mxGeometry x="1050" y="140" width="40" height="20" as="geometry" />
        </mxCell>
        <mxCell id="X-figGxdxcl5Zrcqjurx-65" value="(1,1)" style="text;html=1;align=center;verticalAlign=middle;resizable=0;points=[];autosize=1;strokeColor=none;fillColor=none;" vertex="1" parent="1">
          <mxGeometry x="920" y="515" width="40" height="20" as="geometry" />
        </mxCell>
        <mxCell id="X-figGxdxcl5Zrcqjurx-66" value="(1,1)" style="text;html=1;align=center;verticalAlign=middle;resizable=0;points=[];autosize=1;strokeColor=none;fillColor=none;" vertex="1" parent="1">
          <mxGeometry x="755" y="520" width="40" height="20" as="geometry" />
        </mxCell>
        <mxCell id="X-figGxdxcl5Zrcqjurx-67" value="(1,1)" style="text;html=1;align=center;verticalAlign=middle;resizable=0;points=[];autosize=1;strokeColor=none;fillColor=none;" vertex="1" parent="1">
          <mxGeometry x="705" y="280" width="40" height="20" as="geometry" />
        </mxCell>
        <mxCell id="X-figGxdxcl5Zrcqjurx-68" style="edgeStyle=orthogonalEdgeStyle;rounded=0;orthogonalLoop=1;jettySize=auto;html=1;exitX=1;exitY=0.75;exitDx=0;exitDy=0;entryX=0;entryY=0.5;entryDx=0;entryDy=0;endArrow=none;endFill=0;fillColor=#000000;" edge="1" parent="1" source="X-figGxdxcl5Zrcqjurx-72" target="X-figGxdxcl5Zrcqjurx-81">
          <mxGeometry relative="1" as="geometry" />
        </mxCell>
        <mxCell id="X-figGxdxcl5Zrcqjurx-69" style="edgeStyle=orthogonalEdgeStyle;rounded=0;orthogonalLoop=1;jettySize=auto;html=1;exitX=0;exitY=0;exitDx=0;exitDy=0;entryX=0.5;entryY=1;entryDx=0;entryDy=0;endArrow=none;endFill=0;fillColor=#000000;" edge="1" parent="1" source="X-figGxdxcl5Zrcqjurx-72" target="X-figGxdxcl5Zrcqjurx-83">
          <mxGeometry relative="1" as="geometry" />
        </mxCell>
        <mxCell id="X-figGxdxcl5Zrcqjurx-70" style="edgeStyle=orthogonalEdgeStyle;rounded=0;orthogonalLoop=1;jettySize=auto;html=1;exitX=0.25;exitY=0;exitDx=0;exitDy=0;entryX=0.5;entryY=1;entryDx=0;entryDy=0;endArrow=none;endFill=0;fillColor=#000000;" edge="1" parent="1" source="X-figGxdxcl5Zrcqjurx-72" target="X-figGxdxcl5Zrcqjurx-88">
          <mxGeometry relative="1" as="geometry" />
        </mxCell>
        <mxCell id="X-figGxdxcl5Zrcqjurx-71" style="edgeStyle=orthogonalEdgeStyle;rounded=0;orthogonalLoop=1;jettySize=auto;html=1;exitX=1;exitY=0;exitDx=0;exitDy=0;entryX=0.5;entryY=1;entryDx=0;entryDy=0;endArrow=none;endFill=0;fillColor=#000000;" edge="1" parent="1" source="X-figGxdxcl5Zrcqjurx-72" target="X-figGxdxcl5Zrcqjurx-90">
          <mxGeometry relative="1" as="geometry" />
        </mxCell>
        <mxCell id="X-figGxdxcl5Zrcqjurx-72" value="Piscina" style="whiteSpace=wrap;html=1;align=center;" vertex="1" parent="1">
          <mxGeometry x="315" y="515" width="100" height="40" as="geometry" />
        </mxCell>
        <mxCell id="X-figGxdxcl5Zrcqjurx-73" value="" style="shape=flexArrow;endArrow=classic;html=1;rounded=0;entryX=0.5;entryY=1;entryDx=0;entryDy=0;fillColor=#000000;" edge="1" parent="1">
          <mxGeometry width="50" height="50" relative="1" as="geometry">
            <mxPoint x="364.40999999999985" y="595" as="sourcePoint" />
            <mxPoint x="364.40999999999985" y="555" as="targetPoint" />
          </mxGeometry>
        </mxCell>
        <mxCell id="X-figGxdxcl5Zrcqjurx-74" value="" style="endArrow=none;html=1;rounded=0;fillColor=#000000;" edge="1" parent="1">
          <mxGeometry width="50" height="50" relative="1" as="geometry">
            <mxPoint x="275" y="595" as="sourcePoint" />
            <mxPoint x="455" y="595" as="targetPoint" />
          </mxGeometry>
        </mxCell>
        <mxCell id="X-figGxdxcl5Zrcqjurx-75" style="edgeStyle=orthogonalEdgeStyle;rounded=0;orthogonalLoop=1;jettySize=auto;html=1;exitX=0.5;exitY=0;exitDx=0;exitDy=0;endArrow=none;endFill=0;fillColor=#000000;" edge="1" parent="1" source="X-figGxdxcl5Zrcqjurx-78">
          <mxGeometry relative="1" as="geometry">
            <mxPoint x="275" y="595" as="targetPoint" />
            <Array as="points">
              <mxPoint x="275" y="615" />
              <mxPoint x="275" y="615" />
            </Array>
          </mxGeometry>
        </mxCell>
        <mxCell id="X-figGxdxcl5Zrcqjurx-76" style="edgeStyle=orthogonalEdgeStyle;rounded=0;orthogonalLoop=1;jettySize=auto;html=1;exitX=1;exitY=1;exitDx=0;exitDy=0;entryX=0.5;entryY=0;entryDx=0;entryDy=0;endArrow=none;endFill=0;fillColor=#000000;" edge="1" parent="1" source="X-figGxdxcl5Zrcqjurx-78" target="X-figGxdxcl5Zrcqjurx-93">
          <mxGeometry relative="1" as="geometry" />
        </mxCell>
        <mxCell id="X-figGxdxcl5Zrcqjurx-77" style="edgeStyle=orthogonalEdgeStyle;rounded=0;orthogonalLoop=1;jettySize=auto;html=1;exitX=0;exitY=1;exitDx=0;exitDy=0;entryX=0.5;entryY=0;entryDx=0;entryDy=0;endArrow=none;endFill=0;fillColor=#000000;" edge="1" parent="1" source="X-figGxdxcl5Zrcqjurx-78" target="X-figGxdxcl5Zrcqjurx-92">
          <mxGeometry relative="1" as="geometry" />
        </mxCell>
        <mxCell id="X-figGxdxcl5Zrcqjurx-78" value="Con vasca all&#39;aperto" style="whiteSpace=wrap;html=1;align=center;" vertex="1" parent="1">
          <mxGeometry x="225" y="635" width="100" height="40" as="geometry" />
        </mxCell>
        <mxCell id="X-figGxdxcl5Zrcqjurx-79" style="edgeStyle=orthogonalEdgeStyle;rounded=0;orthogonalLoop=1;jettySize=auto;html=1;exitX=0.5;exitY=0;exitDx=0;exitDy=0;endArrow=none;endFill=0;fillColor=#000000;" edge="1" parent="1" source="X-figGxdxcl5Zrcqjurx-80">
          <mxGeometry relative="1" as="geometry">
            <mxPoint x="455" y="595" as="targetPoint" />
            <Array as="points">
              <mxPoint x="455" y="595" />
            </Array>
          </mxGeometry>
        </mxCell>
        <mxCell id="X-figGxdxcl5Zrcqjurx-80" value="Senza vasca all&#39;aperto" style="whiteSpace=wrap;html=1;align=center;" vertex="1" parent="1">
          <mxGeometry x="405" y="635" width="100" height="40" as="geometry" />
        </mxCell>
        <mxCell id="X-figGxdxcl5Zrcqjurx-81" value="Impiegante" style="shape=rhombus;perimeter=rhombusPerimeter;whiteSpace=wrap;html=1;align=center;" vertex="1" parent="1">
          <mxGeometry x="595" y="515" width="120" height="60" as="geometry" />
        </mxCell>
        <mxCell id="X-figGxdxcl5Zrcqjurx-83" value="" style="ellipse;whiteSpace=wrap;html=1;aspect=fixed;" vertex="1" parent="1">
          <mxGeometry x="285" y="480" width="10" height="10" as="geometry" />
        </mxCell>
        <mxCell id="X-figGxdxcl5Zrcqjurx-84" style="edgeStyle=orthogonalEdgeStyle;rounded=0;orthogonalLoop=1;jettySize=auto;html=1;exitX=0.5;exitY=1;exitDx=0;exitDy=0;entryX=0.953;entryY=0.014;entryDx=0;entryDy=0;entryPerimeter=0;endArrow=none;endFill=0;fillColor=#000000;" edge="1" parent="1" source="X-figGxdxcl5Zrcqjurx-85">
          <mxGeometry relative="1" as="geometry">
            <mxPoint x="380.3000000000002" y="515.56" as="targetPoint" />
          </mxGeometry>
        </mxCell>
        <mxCell id="X-figGxdxcl5Zrcqjurx-85" value="" style="ellipse;whiteSpace=wrap;html=1;aspect=fixed;fillColor=#000000;" vertex="1" parent="1">
          <mxGeometry x="375" y="480" width="10" height="10" as="geometry" />
        </mxCell>
        <mxCell id="X-figGxdxcl5Zrcqjurx-86" value="Nome_P" style="text;html=1;align=center;verticalAlign=middle;resizable=0;points=[];autosize=1;strokeColor=none;fillColor=none;" vertex="1" parent="1">
          <mxGeometry x="360" y="460" width="60" height="20" as="geometry" />
        </mxCell>
        <mxCell id="X-figGxdxcl5Zrcqjurx-87" value="Indirizzo" style="text;html=1;align=center;verticalAlign=middle;resizable=0;points=[];autosize=1;strokeColor=none;fillColor=none;" vertex="1" parent="1">
          <mxGeometry x="255" y="460" width="60" height="20" as="geometry" />
        </mxCell>
        <mxCell id="X-figGxdxcl5Zrcqjurx-88" value="" style="ellipse;whiteSpace=wrap;html=1;aspect=fixed;" vertex="1" parent="1">
          <mxGeometry x="335" y="480" width="10" height="10" as="geometry" />
        </mxCell>
        <mxCell id="X-figGxdxcl5Zrcqjurx-89" value="Telefono" style="text;html=1;align=center;verticalAlign=middle;resizable=0;points=[];autosize=1;strokeColor=none;fillColor=none;" vertex="1" parent="1">
          <mxGeometry x="305" y="460" width="60" height="20" as="geometry" />
        </mxCell>
        <mxCell id="X-figGxdxcl5Zrcqjurx-90" value="" style="ellipse;whiteSpace=wrap;html=1;aspect=fixed;" vertex="1" parent="1">
          <mxGeometry x="425" y="480" width="10" height="10" as="geometry" />
        </mxCell>
        <mxCell id="X-figGxdxcl5Zrcqjurx-91" value="Indirizzo" style="text;html=1;align=center;verticalAlign=middle;resizable=0;points=[];autosize=1;strokeColor=none;fillColor=none;" vertex="1" parent="1">
          <mxGeometry x="420" y="460" width="60" height="20" as="geometry" />
        </mxCell>
        <mxCell id="X-figGxdxcl5Zrcqjurx-92" value="" style="ellipse;whiteSpace=wrap;html=1;aspect=fixed;" vertex="1" parent="1">
          <mxGeometry x="220" y="710" width="10" height="10" as="geometry" />
        </mxCell>
        <mxCell id="X-figGxdxcl5Zrcqjurx-93" value="" style="ellipse;whiteSpace=wrap;html=1;aspect=fixed;" vertex="1" parent="1">
          <mxGeometry x="320" y="710" width="10" height="10" as="geometry" />
        </mxCell>
        <mxCell id="X-figGxdxcl5Zrcqjurx-94" value="" style="shape=flexArrow;endArrow=classic;html=1;rounded=0;entryX=0.5;entryY=1;entryDx=0;entryDy=0;fillColor=#000000;" edge="1" parent="1">
          <mxGeometry width="50" height="50" relative="1" as="geometry">
            <mxPoint x="364.40999999999985" y="595" as="sourcePoint" />
            <mxPoint x="364.40999999999985" y="555" as="targetPoint" />
          </mxGeometry>
        </mxCell>
        <mxCell id="X-figGxdxcl5Zrcqjurx-95" value="" style="shape=flexArrow;endArrow=classic;html=1;rounded=0;entryX=0.5;entryY=1;entryDx=0;entryDy=0;fillColor=#000000;" edge="1" parent="1">
          <mxGeometry width="50" height="50" relative="1" as="geometry">
            <mxPoint x="364.40999999999985" y="595" as="sourcePoint" />
            <mxPoint x="364.40999999999985" y="555" as="targetPoint" />
          </mxGeometry>
        </mxCell>
        <mxCell id="X-figGxdxcl5Zrcqjurx-96" value="" style="endArrow=none;html=1;rounded=0;fillColor=#000000;" edge="1" parent="1">
          <mxGeometry width="50" height="50" relative="1" as="geometry">
            <mxPoint x="275" y="595" as="sourcePoint" />
            <mxPoint x="455" y="595" as="targetPoint" />
          </mxGeometry>
        </mxCell>
        <mxCell id="X-figGxdxcl5Zrcqjurx-97" value="" style="endArrow=none;html=1;rounded=0;fillColor=#000000;" edge="1" parent="1">
          <mxGeometry width="50" height="50" relative="1" as="geometry">
            <mxPoint x="275" y="595" as="sourcePoint" />
            <mxPoint x="455" y="595" as="targetPoint" />
          </mxGeometry>
        </mxCell>
        <mxCell id="X-figGxdxcl5Zrcqjurx-98" value="" style="shape=flexArrow;endArrow=classic;html=1;rounded=0;entryX=0.5;entryY=1;entryDx=0;entryDy=0;fillColor=#000000;" edge="1" parent="1">
          <mxGeometry width="50" height="50" relative="1" as="geometry">
            <mxPoint x="364.40999999999985" y="595" as="sourcePoint" />
            <mxPoint x="364.40999999999985" y="555" as="targetPoint" />
          </mxGeometry>
        </mxCell>
        <mxCell id="X-figGxdxcl5Zrcqjurx-99" style="edgeStyle=orthogonalEdgeStyle;rounded=0;orthogonalLoop=1;jettySize=auto;html=1;exitX=0.5;exitY=0;exitDx=0;exitDy=0;endArrow=none;endFill=0;fillColor=#000000;" edge="1" parent="1">
          <mxGeometry relative="1" as="geometry">
            <mxPoint x="455" y="595" as="targetPoint" />
            <mxPoint x="455" y="635" as="sourcePoint" />
            <Array as="points">
              <mxPoint x="455" y="595" />
            </Array>
          </mxGeometry>
        </mxCell>
        <mxCell id="X-figGxdxcl5Zrcqjurx-100" value="" style="endArrow=none;html=1;rounded=0;fillColor=#000000;" edge="1" parent="1">
          <mxGeometry width="50" height="50" relative="1" as="geometry">
            <mxPoint x="275" y="595" as="sourcePoint" />
            <mxPoint x="455" y="595" as="targetPoint" />
          </mxGeometry>
        </mxCell>
        <mxCell id="X-figGxdxcl5Zrcqjurx-101" value="" style="shape=flexArrow;endArrow=classic;html=1;rounded=0;entryX=0.5;entryY=1;entryDx=0;entryDy=0;fillColor=#000000;" edge="1" parent="1">
          <mxGeometry width="50" height="50" relative="1" as="geometry">
            <mxPoint x="364.40999999999985" y="595" as="sourcePoint" />
            <mxPoint x="364.40999999999985" y="555" as="targetPoint" />
          </mxGeometry>
        </mxCell>
        <mxCell id="X-figGxdxcl5Zrcqjurx-102" style="edgeStyle=orthogonalEdgeStyle;rounded=0;orthogonalLoop=1;jettySize=auto;html=1;exitX=0.5;exitY=0;exitDx=0;exitDy=0;endArrow=none;endFill=0;fillColor=#000000;" edge="1" parent="1">
          <mxGeometry relative="1" as="geometry">
            <mxPoint x="455" y="595" as="targetPoint" />
            <mxPoint x="455" y="635" as="sourcePoint" />
            <Array as="points">
              <mxPoint x="455" y="595" />
            </Array>
          </mxGeometry>
        </mxCell>
        <mxCell id="X-figGxdxcl5Zrcqjurx-103" value="(0,n)" style="text;html=1;align=center;verticalAlign=middle;resizable=0;points=[];autosize=1;strokeColor=none;fillColor=none;" vertex="1" parent="1">
          <mxGeometry x="415" y="550" width="40" height="20" as="geometry" />
        </mxCell>
        <mxCell id="X-figGxdxcl5Zrcqjurx-106" value="(0,n)" style="text;html=1;align=center;verticalAlign=middle;resizable=0;points=[];autosize=1;strokeColor=none;fillColor=none;" vertex="1" parent="1">
          <mxGeometry x="425" y="515" width="40" height="20" as="geometry" />
        </mxCell>
        <mxCell id="X-figGxdxcl5Zrcqjurx-107" value="Inizio_periodo" style="text;html=1;align=center;verticalAlign=middle;resizable=0;points=[];autosize=1;strokeColor=none;fillColor=none;" vertex="1" parent="1">
          <mxGeometry x="190" y="720" width="90" height="20" as="geometry" />
        </mxCell>
        <mxCell id="X-figGxdxcl5Zrcqjurx-108" value="Fine_periodo" style="text;html=1;align=center;verticalAlign=middle;resizable=0;points=[];autosize=1;strokeColor=none;fillColor=none;" vertex="1" parent="1">
          <mxGeometry x="285" y="720" width="90" height="20" as="geometry" />
        </mxCell>
      </root>
    </mxGraphModel>
  </diagram>
</mxfile>
